<?xml version="1.0" standalone="no"?>
<!DOCTYPE svg PUBLIC "-//W3C//DTD SVG 20010904//EN"
 "http://www.w3.org/TR/2001/REC-SVG-20010904/DTD/svg10.dtd">
<svg version="1.0" xmlns="http://www.w3.org/2000/svg"
 width="512.000000pt" height="512.000000pt" viewBox="0 0 512.000000 512.000000"
 preserveAspectRatio="xMidYMid meet">

<g transform="translate(0.000000,512.000000) scale(0.100000,-0.100000)"
fill="#000000" stroke="none">
<path style="fill:#000000" d="M2433 5110 c-172 -31 -347 -142 -447 -284 -82 -116 -119 -210 -137
-350 -9 -68 -14 -82 -37 -100 -154 -119 -303 -323 -373 -515 -56 -153 -84
-334 -59 -381 5 -10 24 -23 41 -29 26 -9 37 -8 56 4 31 21 37 39 57 163 34
219 123 389 291 557 159 159 315 245 530 290 107 23 303 23 410 0 215 -46 371
-131 530 -290 158 -159 247 -320 289 -525 15 -77 33 -351 23 -366 -3 -5 -51
-7 -107 -4 -126 6 -140 17 -140 114 0 76 -22 164 -57 228 -25 47 -107 133
-148 155 -11 7 -18 13 -15 15 3 2 29 19 58 38 86 53 102 100 52 150 -31 31
-67 24 -153 -31 -112 -72 -397 -209 -552 -264 -155 -56 -384 -115 -553 -144
-67 -11 -131 -25 -141 -30 -35 -19 -80 -81 -86 -118 -17 -100 -32 -110 -180
-115 -115 -5 -153 -19 -216 -80 -58 -56 -84 -118 -83 -198 1 -75 18 -121 64
-174 50 -57 109 -87 187 -94 l67 -7 14 -85 c37 -224 162 -438 338 -579 43 -35
88 -68 101 -74 23 -10 23 -12 23 -184 0 -193 -5 -213 -62 -256 -18 -13 -195
-93 -393 -177 -198 -84 -386 -166 -417 -182 -114 -60 -213 -197 -238 -327 -6
-31 -10 -217 -10 -433 l0 -379 25 -24 c30 -30 64 -32 99 -4 l26 20 0 363 c0
218 4 386 11 422 14 75 52 147 102 189 31 27 308 154 525 242 9 4 12 -46 12
-230 l0 -236 -158 -3 c-157 -3 -159 -3 -208 -33 -30 -19 -60 -49 -79 -79 l-30
-49 -3 -209 c-4 -252 3 -284 78 -351 73 -66 155 -84 204 -46 54 43 23 119 -55
133 -71 13 -74 24 -74 243 l0 195 28 24 28 24 350 0 350 0 24 -25 c25 -24 25
-25 25 -220 0 -181 -1 -196 -20 -215 -11 -11 -32 -22 -47 -25 -76 -17 -101
-49 -82 -105 19 -54 79 -65 159 -29 55 25 95 62 123 114 21 38 22 54 22 260 0
207 -1 222 -22 260 -12 22 -36 54 -55 72 -56 54 -91 63 -253 63 l-145 0 0 210
0 211 73 -49 c428 -286 467 -310 516 -322 92 -22 124 -8 423 191 l268 179 0
-293 0 -292 -51 -23 c-130 -60 -203 -200 -177 -342 19 -104 80 -182 178 -229
45 -21 69 -26 135 -26 72 0 86 3 143 34 73 40 105 74 141 151 35 75 36 182 1
255 -32 66 -105 137 -163 160 l-47 18 0 318 c0 176 2 319 4 319 12 0 457 -195
492 -215 53 -31 90 -75 123 -145 l26 -55 3 -402 3 -403 26 -20 c32 -25 64 -26
94 -1 l24 19 3 382 c2 234 -1 403 -8 438 -24 132 -123 269 -238 330 -31 17
-122 58 -202 92 -80 34 -242 102 -360 152 -118 50 -230 102 -248 115 -57 42
-62 63 -62 255 l1 173 44 28 c218 138 374 380 419 647 l12 75 65 6 c35 3 82
15 105 26 147 77 196 264 103 393 -29 39 -29 41 -29 180 0 242 -25 397 -93
563 -67 167 -200 352 -326 454 -56 46 -59 51 -66 103 -10 92 -35 186 -66 251
-119 251 -348 405 -617 414 -59 2 -130 0 -159 -5z m242 -155 c158 -33 305
-142 377 -281 37 -71 65 -150 56 -159 -3 -3 -34 8 -69 24 -198 90 -434 121
-659 87 -107 -17 -241 -56 -313 -93 -27 -13 -52 -22 -55 -19 -9 10 18 87 56
160 49 93 141 183 236 230 126 63 241 78 371 51z m378 -1296 c98 -52 144 -130
153 -264 7 -100 27 -156 70 -198 49 -49 82 -60 201 -68 130 -8 168 -24 197
-83 16 -32 17 -44 7 -75 -6 -20 -22 -48 -37 -62 -23 -21 -37 -25 -130 -29
-135 -7 -139 -10 -153 -146 -22 -205 -87 -347 -225 -493 -154 -161 -344 -241
-576 -241 -233 0 -424 81 -581 246 -134 142 -200 290 -219 489 -13 133 -18
138 -149 145 -80 4 -105 9 -128 26 -59 44 -61 138 -4 187 26 21 41 25 144 30
124 6 167 20 221 73 37 37 66 96 66 132 0 40 12 47 105 61 265 39 653 159 874
271 46 23 60 26 98 19 24 -5 53 -14 66 -20z m-716 -1791 c123 -31 333 -30 447
1 44 11 83 21 88 21 4 0 8 -46 8 -103 0 -230 47 -325 200 -402 l61 -31 -273
-182 c-220 -147 -280 -182 -307 -182 -28 0 -87 35 -307 183 l-272 182 59 29
c77 37 135 94 167 164 23 51 26 73 30 200 3 78 6 142 7 142 2 0 43 -10 92 -22z
m1000 -1399 c154 -58 131 -290 -32 -315 -36 -5 -54 -2 -92 17 -26 13 -56 36
-66 50 -24 34 -33 106 -18 151 27 82 126 128 208 97z"/>
<path d="M2109 3091 c-30 -30 -31 -35 -27 -96 5 -79 24 -105 78 -105 57 0 75
27 75 111 0 76 -15 102 -67 114 -22 6 -33 1 -59 -24z"/>
<path d="M2913 3096 c-26 -22 -28 -30 -28 -94 0 -85 18 -112 75 -112 54 0 73
26 78 105 4 61 3 66 -26 95 -37 36 -62 38 -99 6z"/>
<path d="M2290 2627 c-14 -7 -31 -24 -38 -39 -40 -85 122 -180 308 -180 139 0
285 60 310 128 13 34 -6 74 -43 92 -24 11 -32 11 -60 -4 -17 -9 -50 -26 -72
-38 -49 -25 -169 -34 -229 -16 -23 6 -57 22 -76 34 -50 32 -71 37 -100 23z"/>
<path d="M501 2869 c-101 -18 -200 -99 -237 -195 -17 -43 -19 -77 -19 -294 0
-230 1 -249 23 -312 30 -87 85 -170 155 -236 l57 -53 0 -104 0 -103 -157 -53
c-87 -28 -174 -60 -194 -70 -48 -24 -103 -88 -117 -138 -8 -26 -12 -147 -12
-370 l0 -332 25 -24 c31 -32 69 -32 100 0 l25 24 0 330 c0 398 -16 359 175
422 72 23 136 44 143 47 9 3 12 -38 12 -187 l0 -191 -60 0 c-78 0 -128 -25
-158 -78 -19 -35 -22 -54 -22 -159 0 -108 2 -123 22 -153 32 -47 68 -71 116
-77 34 -5 44 -2 66 20 33 33 34 76 3 105 -13 12 -31 22 -40 22 -15 0 -17 12
-17 85 l0 85 165 0 165 0 0 -85 c0 -70 -3 -85 -15 -85 -25 0 -65 -47 -65 -75
0 -15 11 -37 26 -52 45 -45 130 -19 182 57 20 30 22 45 22 152 0 135 -12 174
-64 211 -23 16 -49 23 -103 26 l-73 3 0 134 c0 74 2 134 5 134 3 0 26 -15 52
-34 54 -38 99 -51 144 -41 17 4 85 48 152 97 l121 91 43 -11 c61 -17 77 -15
101 11 27 29 29 78 4 101 -11 9 -47 26 -80 37 l-62 21 0 103 0 103 45 36 c60
50 129 148 162 232 27 67 27 75 31 317 4 282 -1 311 -68 396 -28 35 -59 59
-107 83 l-68 33 -275 2 c-151 1 -300 -3 -329 -8z m620 -172 c66 -44 79 -77 79
-195 l0 -104 -47 7 c-132 19 -304 87 -405 162 -39 28 -62 38 -103 41 -61 5
-72 0 -177 -80 l-78 -59 0 58 c0 72 31 138 79 170 33 23 40 23 326 23 287 0
293 0 326 -23z m-428 -278 c128 -85 305 -151 442 -165 62 -6 65 -8 65 -33 0
-44 -29 -140 -55 -186 -36 -61 -116 -132 -183 -163 -76 -35 -205 -42 -287 -17
-154 49 -264 188 -281 358 l-7 64 119 91 c66 50 121 91 123 91 2 1 31 -17 64
-40z m64 -735 c43 -4 97 -2 133 5 34 7 63 11 65 9 2 -2 5 -47 7 -100 l3 -97
-75 -56 c-41 -32 -80 -59 -87 -62 -17 -7 -183 119 -178 135 3 8 5 52 5 99 l0
85 28 -6 c15 -3 59 -9 99 -12z"/>
<path d="M4102 2870 c-124 -18 -239 -106 -299 -228 l-28 -57 0 -235 c0 -233 0
-236 28 -304 34 -85 101 -180 161 -230 l46 -37 0 -104 0 -103 -62 -21 c-33
-11 -69 -28 -80 -37 -26 -24 -23 -75 5 -102 26 -25 52 -27 107 -11 37 11 37
11 158 -79 66 -50 134 -93 151 -97 52 -11 96 5 184 71 48 35 89 64 92 64 3 0
5 -76 5 -170 l0 -169 -35 -17 c-110 -52 -156 -198 -99 -312 29 -59 70 -94 133
-117 84 -29 171 -10 235 52 47 46 66 82 73 141 10 92 -40 193 -117 232 l-40
20 0 180 c0 99 3 180 7 180 5 0 51 -14 103 -31 150 -49 140 -18 140 -410 l0
-330 25 -24 c13 -14 36 -25 50 -25 14 0 37 11 50 25 l25 24 0 332 c0 223 -4
344 -12 370 -14 50 -69 114 -117 138 -20 10 -107 42 -193 70 l-158 53 0 103 0
104 60 57 c71 68 114 132 148 222 23 61 26 84 30 257 3 129 0 207 -8 245 -37
167 -165 285 -335 310 -81 11 -355 11 -433 0z m476 -166 c47 -19 98 -68 125
-119 18 -35 22 -61 25 -195 4 -171 -5 -245 -42 -327 -32 -69 -115 -152 -191
-189 -55 -27 -69 -29 -170 -29 -104 0 -114 2 -176 32 -82 41 -150 111 -192
201 -32 66 -32 68 -35 249 -4 211 5 255 66 317 68 71 89 76 335 76 174 0 225
-3 255 -16z m-291 -1020 c43 -4 97 -2 133 5 34 7 63 11 65 9 1 -2 5 -46 7 -99
l4 -95 -80 -60 c-43 -32 -83 -61 -88 -62 -4 -2 -47 25 -94 60 -68 50 -84 67
-80 83 3 11 6 55 6 99 l0 78 28 -6 c15 -3 59 -9 99 -12z"/>
</g>
</svg>
