<?xml version="1.0" encoding="utf-8"?>
<!-- Generator: Adobe Illustrator 27.5.0, SVG Export Plug-In . SVG Version: 6.00 Build 0)  -->
<svg version="1.1" xmlns="http://www.w3.org/2000/svg" xmlns:xlink="http://www.w3.org/1999/xlink" x="0px" y="0px"
	 viewBox="0 0 500 500" style="enable-background:new 0 0 500 500;" xml:space="preserve">
<g id="Background_Complete">
	<g>
		<g>
			<rect y="382.398" style="fill:#FFFFFF;" width="500" height="0.25"/>
			<rect x="416.779" y="398.494" style="fill:#FFFFFF;" width="18.888" height="0.25"/>
			<rect x="293.054" y="396.75" style="fill:#FFFFFF;" width="29.473" height="0.25"/>
			<rect x="368.667" y="389.208" style="fill:#FFFFFF;" width="47.111" height="0.25"/>
			<rect x="52.459" y="390.888" style="fill:#FFFFFF;" width="10.971" height="0.25"/>
			<rect x="72.333" y="390.888" style="fill:#FFFFFF;" width="38.555" height="0.25"/>
			<rect x="171" y="395.111" style="fill:#FFFFFF;" width="54.147" height="0.25"/>
			<path style="fill:#FFFFFF;" d="M237.014,337.8H43.915c-3.147,0-5.708-2.561-5.708-5.708V60.66c0-3.147,2.561-5.708,5.708-5.708
				h193.099c3.146,0,5.707,2.561,5.707,5.708v271.432C242.721,335.239,240.16,337.8,237.014,337.8z M43.915,55.203
				c-3.01,0-5.458,2.448-5.458,5.458v271.432c0,3.01,2.448,5.458,5.458,5.458h193.099c3.009,0,5.457-2.448,5.457-5.458V60.66
				c0-3.009-2.448-5.458-5.457-5.458H43.915z"/>
			<path style="fill:#FFFFFF;" d="M453.31,337.8H260.212c-3.147,0-5.707-2.561-5.707-5.708V60.66c0-3.147,2.561-5.708,5.707-5.708
				H453.31c3.148,0,5.708,2.561,5.708,5.708v271.432C459.019,335.239,456.458,337.8,453.31,337.8z M260.212,55.203
				c-3.009,0-5.457,2.448-5.457,5.458v271.432c0,3.01,2.448,5.458,5.457,5.458H453.31c3.01,0,5.458-2.448,5.458-5.458V60.66
				c0-3.009-2.448-5.458-5.458-5.458H260.212z"/>
		</g>
		<g>
			<rect x="416.779" y="398.494" style="fill:#FFFFFF;" width="18.888" height="0.25"/>
			<rect x="293.054" y="396.75" style="fill:#FFFFFF;" width="29.473" height="0.25"/>
			<rect x="368.667" y="389.208" style="fill:#FFFFFF;" width="47.111" height="0.25"/>
			<rect x="52.459" y="390.888" style="fill:#FFFFFF;" width="10.971" height="0.25"/>
			<rect x="72.333" y="390.888" style="fill:#FFFFFF;" width="38.555" height="0.25"/>
			<rect x="171" y="395.111" style="fill:#FFFFFF;" width="54.147" height="0.25"/>
		</g>
	</g>
	<g>
		<g>
			
				<ellipse transform="matrix(0.3827 -0.9239 0.9239 0.3827 -219.794 381.7641)" style="fill:#E0E0E0;" cx="175.778" cy="355.355" rx="27.044" ry="27.044"/>
			
				<ellipse transform="matrix(0.7071 -0.7071 0.7071 0.7071 -148.8051 351.4617)" style="fill:#E0E0E0;" cx="349.849" cy="355.355" rx="27.044" ry="27.044"/>
			<polygon style="fill:#F5F5F5;" points="84.29,236.64 56.111,294.134 56.111,348.143 165.181,348.143 165.181,236.64 			"/>
			<polygon style="fill:#EBEBEB;" points="88.827,246.93 70.71,283.896 70.71,296.268 115.355,296.268 115.355,246.93 			"/>
			<rect x="129.604" y="236.64" style="fill:#E0E0E0;" width="18.991" height="111.503"/>
			
				<rect x="137.296" y="217.911" transform="matrix(-1 -1.224647e-16 1.224647e-16 -1 533.906 566.054)" style="fill:#EBEBEB;" width="259.314" height="130.232"/>
			
				<rect x="56.111" y="348.143" transform="matrix(-1 -1.224647e-16 1.224647e-16 -1 452.721 705.3242)" style="fill:#E6E6E6;" width="340.499" height="9.038"/>
			
				<ellipse transform="matrix(0.3827 -0.9239 0.9239 0.3827 -273.9108 300.7726)" style="fill:#E6E6E6;" cx="88.114" cy="355.355" rx="27.044" ry="27.044"/>
			<path style="fill:#F5F5F5;" d="M88.114,341.95c7.391,0,13.404,6.013,13.404,13.404c0,7.391-6.013,13.404-13.404,13.404
				s-13.404-6.013-13.404-13.404C74.71,347.963,80.723,341.95,88.114,341.95 M88.114,337.95c-9.612,0-17.404,7.793-17.404,17.404
				c0,9.612,7.792,17.404,17.404,17.404c9.612,0,17.404-7.792,17.404-17.404C105.518,345.743,97.726,337.95,88.114,337.95
				L88.114,337.95z"/>
			
				<ellipse transform="matrix(0.7071 -0.7071 0.7071 0.7071 -174.4815 289.4736)" style="fill:#E6E6E6;" cx="262.185" cy="355.355" rx="27.044" ry="27.044"/>
			<path style="fill:#F5F5F5;" d="M262.185,341.95c7.391,0,13.404,6.013,13.404,13.404c0,7.391-6.013,13.404-13.404,13.404
				c-7.391,0-13.404-6.013-13.404-13.404C248.781,347.963,254.794,341.95,262.185,341.95 M262.185,337.95
				c-9.612,0-17.404,7.793-17.404,17.404c0,9.612,7.792,17.404,17.404,17.404c9.612,0,17.404-7.792,17.404-17.404
				C279.589,345.743,271.797,337.95,262.185,337.95L262.185,337.95z"/>
			<rect x="303.887" y="226.616" style="fill:#E0E0E0;" width="88.583" height="117.971"/>
			<g>
				<rect x="322.805" y="309.31" style="fill:#FAFAFA;" width="25.373" height="35.277"/>
				<rect x="332.238" y="309.31" style="fill:#F5F5F5;" width="6.508" height="12.08"/>
				<rect x="351.52" y="317.182" style="fill:#FAFAFA;" width="25.373" height="27.404"/>
				
					<rect x="348.178" y="317.182" transform="matrix(-1 -1.224647e-16 1.224647e-16 -1 699.6986 661.7692)" style="fill:#EBEBEB;" width="3.342" height="27.404"/>
				<rect x="360.953" y="317.182" style="fill:#F5F5F5;" width="6.508" height="12.08"/>
			</g>
			
				<rect x="392.47" y="226.616" transform="matrix(-1 -1.224647e-16 1.224647e-16 -1 836.3591 571.2026)" style="fill:#F0F0F0;" width="51.42" height="117.971"/>
			
				<rect x="303.887" y="226.616" transform="matrix(-1 -1.224647e-16 1.224647e-16 -1 626.6922 571.2026)" style="fill:#F0F0F0;" width="18.919" height="117.971"/>
			<g>
				<circle style="fill:#FFFFFF;" cx="234.336" cy="277.278" r="40.638"/>
				<g>
					<rect x="227.795" y="254.238" style="fill:#EBEBEB;" width="13.082" height="46.079"/>
					
						<rect x="227.795" y="254.238" transform="matrix(-1.836970e-16 1 -1 -1.836970e-16 511.6141 42.9414)" style="fill:#EBEBEB;" width="13.082" height="46.079"/>
				</g>
			</g>
		</g>
		<g>
			
				<ellipse transform="matrix(0.1602 -0.9871 0.9871 0.1602 97.7004 339.3268)" style="fill:#FAFAFA;" cx="248.266" cy="112.247" rx="37.471" ry="37.471"/>
			
				<ellipse transform="matrix(0.1602 -0.9871 0.9871 0.1602 100.5019 371.9034)" style="fill:#FAFAFA;" cx="268.811" cy="126.889" rx="41.139" ry="41.139"/>
			
				<ellipse transform="matrix(0.7071 -0.7071 0.7071 0.7071 -30.7546 192.225)" style="fill:#FAFAFA;" cx="216.659" cy="133.237" rx="33.17" ry="33.17"/>
			<circle style="fill:#FAFAFA;" cx="180.741" cy="137.824" r="18.45"/>
			
				<ellipse transform="matrix(0.7071 -0.7071 0.7071 0.7071 -8.0745 256.1549)" style="fill:#FAFAFA;" cx="305.169" cy="137.824" rx="20.942" ry="20.942"/>
		</g>
		<g>
			<circle style="fill:#F5F5F5;" cx="391.516" cy="95.758" r="26.639"/>
			<circle style="fill:#F5F5F5;" cx="367.601" cy="101.244" r="20.244"/>
			<circle style="fill:#F5F5F5;" cx="413.435" cy="105.592" r="23.581"/>
			
				<ellipse transform="matrix(0.9732 -0.2298 0.2298 0.9732 -11.3797 101.8142)" style="fill:#F5F5F5;" cx="431.531" cy="99.775" rx="14.332" ry="14.332"/>
		</g>
		<g>
			<circle style="fill:#F5F5F5;" cx="113.9" cy="99.146" r="23.186"/>
			
				<ellipse transform="matrix(0.9732 -0.2298 0.2298 0.9732 -18.0784 33.4756)" style="fill:#F5F5F5;" cx="134.714" cy="94.371" rx="17.619" ry="17.619"/>
			<circle style="fill:#F5F5F5;" cx="94.822" cy="90.587" r="20.524"/>
			
				<ellipse transform="matrix(0.7071 -0.7071 0.7071 0.7071 -44.4752 83.9276)" style="fill:#F5F5F5;" cx="79.072" cy="95.65" rx="12.474" ry="12.474"/>
		</g>
	</g>
</g>
<g id="Background_Simple" style="display:none;">
	<g style="display:inline;">
		<path style="fill:#407BFF;" d="M113.672,130.84c12.933-30.193,60.72-38.42,100.365-21.233
			c34.583,14.992,45.456,43.812,84.933,52.414c36.78,8.014,70.725,5.2,101.059,39.502c23.862,26.984,19.726,55.361,12.037,82.446
			c-21.027,74.068-74.582,86.026-156.217,41.935c-39.02-21.075-85.375-51.098-115.191-83.917
			C104.878,202.605,97.635,168.283,113.672,130.84z"/>
		<path style="opacity:0.9;fill:#FFFFFF;" d="M113.672,130.84c12.933-30.193,60.72-38.42,100.365-21.233
			c34.583,14.992,45.456,43.812,84.933,52.414c36.78,8.014,70.725,5.2,101.059,39.502c23.862,26.984,19.726,55.361,12.037,82.446
			c-21.027,74.068-74.582,86.026-156.217,41.935c-39.02-21.075-85.375-51.098-115.191-83.917
			C104.878,202.605,97.635,168.283,113.672,130.84z"/>
	</g>
</g>
<g id="Shadow_1_">
	<ellipse id="_x3C_Path_x3E__246_" style="fill:#F5F5F5;" cx="250" cy="416.238" rx="193.889" ry="11.323"/>
</g>
<g id="Supplies">
	<g>
		<g>
			<g>
				<rect x="74.111" y="359.838" style="fill:#407BFF;" width="66.659" height="53.067"/>
				<rect x="74.111" y="359.838" style="opacity:0.7;fill:#FFFFFF;" width="66.659" height="53.067"/>
			</g>
			<rect x="117.18" y="359.838" style="opacity:0.4;fill:#407BFF;" width="23.59" height="53.067"/>
			<path style="fill:#FFFFFF;" d="M134.996,386.372c0,5.564-2.301,10.075-5.139,10.075c-2.838,0-5.139-4.511-5.139-10.075
				s2.301-10.075,5.139-10.075C132.695,376.297,134.996,380.808,134.996,386.372z"/>
			<g>
				<rect x="128.89" y="380.174" style="fill:#407BFF;" width="1.934" height="12.396"/>
				
					<rect x="128.224" y="382.702" transform="matrix(-1.836970e-16 1 -1 -1.836970e-16 516.2288 256.515)" style="fill:#407BFF;" width="3.266" height="7.34"/>
			</g>
			
				<rect x="91.437" y="392.839" transform="matrix(-1 -1.224647e-16 1.224647e-16 -1 191.2912 805.7446)" style="opacity:0.7;fill:#FFFFFF;" width="8.418" height="20.066"/>
			
				<rect x="91.437" y="359.838" transform="matrix(-1 -1.224647e-16 1.224647e-16 -1 191.2912 729.0876)" style="opacity:0.7;fill:#FFFFFF;" width="8.418" height="9.411"/>
		</g>
		<g>
			<g>
				<rect x="127.556" y="359.838" style="fill:#407BFF;" width="66.659" height="53.067"/>
				<rect x="127.556" y="359.838" style="opacity:0.7;fill:#FFFFFF;" width="66.659" height="53.067"/>
			</g>
			<rect x="170.625" y="359.838" style="opacity:0.4;fill:#407BFF;" width="23.59" height="53.067"/>
			<path style="fill:#FFFFFF;" d="M188.441,386.372c0,5.564-2.301,10.075-5.139,10.075c-2.838,0-5.139-4.511-5.139-10.075
				s2.301-10.075,5.139-10.075C186.14,376.297,188.441,380.808,188.441,386.372z"/>
			<g>
				<rect x="182.335" y="380.174" style="fill:#407BFF;" width="1.934" height="12.396"/>
				
					<rect x="181.668" y="382.702" transform="matrix(-1.836970e-16 1 -1 -1.836970e-16 569.6733 203.0704)" style="fill:#407BFF;" width="3.266" height="7.34"/>
			</g>
			<rect x="144.881" y="359.838" style="opacity:0.7;fill:#FFFFFF;" width="8.418" height="20.066"/>
			<rect x="144.881" y="403.495" style="opacity:0.7;fill:#FFFFFF;" width="8.418" height="9.411"/>
		</g>
		<g>
			<g>
				<rect x="105.567" y="319.257" style="fill:#407BFF;" width="66.659" height="40.581"/>
				<rect x="105.567" y="319.257" style="opacity:0.7;fill:#FFFFFF;" width="66.659" height="40.581"/>
			</g>
			<rect x="148.636" y="319.257" style="opacity:0.4;fill:#407BFF;" width="23.59" height="40.581"/>
			<ellipse style="fill:#FFFFFF;" cx="161.312" cy="339.548" rx="5.139" ry="10.075"/>
			<g>
				<rect x="160.346" y="333.35" style="fill:#407BFF;" width="1.934" height="12.396"/>
				
					<rect x="159.679" y="335.878" transform="matrix(-1.836970e-16 1 -1 -1.836970e-16 500.8603 178.2355)" style="fill:#407BFF;" width="3.266" height="7.34"/>
			</g>
			<rect x="122.892" y="319.257" style="opacity:0.7;fill:#FFFFFF;" width="8.418" height="13.823"/>
			<rect x="122.892" y="350.428" style="opacity:0.7;fill:#FFFFFF;" width="8.418" height="9.411"/>
		</g>
	</g>
</g>
<g id="Character_1">
	<g>
		<g>
			<path style="fill:#FF8B7B;" d="M184.41,156.04l3.561,5.936c1.225,1.987,2.447,3.977,3.704,5.937
				c2.504,3.924,5.092,7.772,7.814,11.419c0.675,0.926,1.38,1.787,2.064,2.69c0.346,0.445,0.707,0.859,1.059,1.291l0.532,0.643
				l0.266,0.322c0.044,0.05-0.003,0-0.031-0.025l-0.092-0.079l-0.176-0.133c-0.479-0.311-0.675-0.277-0.621-0.228
				c0.04,0.067,0.3,0.156,0.619,0.219c0.666,0.134,1.611,0.136,2.604,0.121c4.057-0.163,8.812-1.109,13.346-1.907l2.481,5.914
				c-2.204,1.426-4.387,2.598-6.738,3.671c-2.347,1.059-4.776,1.994-7.526,2.659c-1.385,0.34-2.846,0.576-4.586,0.626
				c-0.882,0.01-1.826-0.021-2.954-0.248c-1.108-0.242-2.451-0.66-3.872-1.726c-0.175-0.134-0.346-0.266-0.518-0.426l-0.254-0.235
				l-0.19-0.185l-0.34-0.347l-0.68-0.694c-0.449-0.465-0.917-0.924-1.35-1.396c-0.851-0.948-1.757-1.878-2.556-2.854
				c-3.305-3.857-6.31-7.854-9.107-11.961c-1.392-2.057-2.746-4.132-4.042-6.245c-1.311-2.127-2.523-4.211-3.754-6.508
				L184.41,156.04z"/>
			<path style="fill:#407BFF;" d="M216.911,183.838l7.156-6.677l5.333,8.133c0,0-4.822,5.871-10.561,3.205L216.911,183.838z"/>
			<path style="fill:#407BFF;" d="M232.97,175.813l1.004,4.442c0.167,0.74-0.105,1.51-0.7,1.98l-3.875,3.06l-5.333-8.133
				l6.192-2.717C231.392,173.947,232.697,174.606,232.97,175.813z"/>
		</g>
		<path style="fill:#407BFF;" d="M204.876,406.721c-0.067-0.034-0.111-0.103-0.111-0.18c0-0.086,0.054-0.163,0.134-0.191
			c0.411-0.146,4.048-1.405,4.998-0.692c0.183,0.138,0.273,0.338,0.258,0.579l0,0c-0.024,0.404-0.195,0.714-0.508,0.924
			c-1.04,0.695-3.42,0.03-4.746-0.429C204.893,406.729,204.884,406.725,204.876,406.721z M209.586,405.939
			c-0.608-0.308-2.548,0.143-3.977,0.599c1.826,0.566,3.23,0.676,3.814,0.286c0.205-0.137,0.313-0.337,0.329-0.612
			c0.006-0.106-0.023-0.175-0.097-0.231C209.634,405.966,209.611,405.952,209.586,405.939z"/>
		<path style="fill:#407BFF;" d="M206.531,403.418c0.357-0.225,0.755-0.294,1.161-0.199c0.539,0.136,0.655,0.434,0.663,0.661
			c0.022,0.983-2.251,2.541-3.333,2.86c-0.045,0.015-0.098,0.007-0.147-0.022c-0.022-0.003-0.03-0.015-0.05-0.029
			c-0.046-0.05-0.068-0.118-0.057-0.192C204.794,406.403,205.332,404.149,206.531,403.418z M207.955,403.893
			c-0.006-0.033-0.002-0.129-0.162-0.208c-0.05-0.029-0.111-0.049-0.204-0.074l-0.084-0.013c-0.263-0.04-0.518,0.007-0.768,0.162
			c-0.784,0.483-1.267,1.809-1.473,2.455C206.392,405.732,207.962,404.476,207.955,403.893z"/>
		<polygon style="fill:#FF8B7B;" points="196.846,407.481 205.369,407.348 204.837,387.534 196.314,387.668 		"/>
		<path style="fill:#263238;" d="M205.469,406.36l-9.312,0.146c-0.349,0.005-0.622,0.253-0.659,0.595l-0.811,7.618
			c-0.084,0.79,0.598,1.526,1.401,1.5c3.353-0.11,8.184-0.383,12.406-0.45c4.937-0.078,4.456,0.125,10.246,0.034
			c3.501-0.055,4.064-3.615,2.562-3.913c-6.839-1.357-7.528-1.428-13.702-4.897C206.929,406.616,206.205,406.348,205.469,406.36z"/>
		<polygon style="opacity:0.2;" points="204.836,387.54 205.112,397.752 196.585,397.886 196.309,387.673 		"/>
		<path style="fill:#FF8B7B;" d="M185.109,118.302c-0.327,6.392,0.244,18.939-4.406,22.974c3.189,3.452,8.467,6.206,15.889,6.664
			c7.422,0.457,5.725-3.69,3.933-6.424c-6.878-1.843-5.644-7.956-4.117-12.759L185.109,118.302z"/>
		<path style="fill:#407BFF;" d="M177.459,140.272c0.186-1.793,1.299-5.379,6.121-4.143c4.823,1.237,10.511,0.804,14.839,1.051
			c4.328,0.247,4.571,5.68,4.571,5.68L177.459,140.272z"/>
		<path style="fill:#263238;" d="M179.204,139.069c10.268-0.11,23.079,1.14,30.038,3.333c1.833,0.578,3.115,2.217,3.217,4.136
			c0.412,7.739,1.534,33.221,2.497,72.937c0,0.004-45.689,0.74-45.689,0.74c0.059-15.471,0.061-35.724-3.59-65.679
			C164.682,146.377,170.984,139.158,179.204,139.069z"/>
		<g>
			<g>
				
					<rect x="219.601" y="154.909" transform="matrix(0.9918 0.1281 -0.1281 0.9918 24.4192 -30.8004)" style="fill:#407BFF;" width="63.952" height="38.933"/>
				
					<rect x="219.601" y="154.909" transform="matrix(0.9918 0.1281 -0.1281 0.9918 24.4192 -30.8004)" style="opacity:0.7;fill:#FFFFFF;" width="63.952" height="38.933"/>
			</g>
			
				<rect x="240.127" y="156.229" transform="matrix(0.9918 0.1281 -0.1281 0.9918 24.6725 -32.0989)" style="opacity:0.4;fill:#407BFF;" width="43.342" height="38.933"/>
			<path style="fill:#FFFFFF;" d="M272.768,177.113c-0.684,5.294-5.431,9.045-10.603,8.376c-5.172-0.668-8.81-5.502-8.126-10.796
				c0.684-5.294,5.431-9.044,10.603-8.376C269.814,166.986,273.453,171.819,272.768,177.113z"/>
			<g>
				
					<rect x="261.628" y="169.957" transform="matrix(0.9918 0.1281 -0.1281 0.9918 24.7137 -32.3046)" style="fill:#407BFF;" width="3.553" height="11.893"/>
				
					<rect x="261.837" y="169.161" transform="matrix(-0.1281 0.9918 -0.9918 -0.1281 471.6106 -62.7882)" style="fill:#407BFF;" width="3.133" height="13.485"/>
			</g>
			
				<rect x="229.514" y="152.19" transform="matrix(0.9918 0.1281 -0.1281 0.9918 22.2579 -28.336)" style="opacity:0.7;fill:#FFFFFF;" width="3.684" height="13.262"/>
			
				<rect x="225.954" y="181.865" transform="matrix(0.9918 0.1281 -0.1281 0.9918 25.7598 -27.6525)" style="opacity:0.7;fill:#FFFFFF;" width="3.684" height="9.029"/>
		</g>
		<path style="fill:#FF8B7B;" d="M215.384,153.605c0.218,1.012,0.518,2.223,0.783,3.348l0.865,3.438
			c0.604,2.287,1.226,4.57,1.915,6.82c0.685,2.251,1.397,4.484,2.201,6.658c0.788,2.18,1.624,4.325,2.57,6.365
			c0.474,1.021,0.952,2.027,1.461,2.998c0.248,0.494,0.521,0.954,0.78,1.435l0.409,0.688l0.204,0.345l0.026,0.043
			c0.01,0.016-0.026-0.037-0.038-0.051l-0.11-0.136c-0.08-0.085-0.157-0.171-0.24-0.251c-0.335-0.319-0.699-0.524-0.956-0.62
			c-0.252-0.097-0.396-0.111-0.464-0.102c-0.123,0.033,0.077,0.115,0.372,0.142c0.614,0.075,1.586-0.041,2.587-0.183
			c4.12-0.693,8.867-2.293,13.404-3.695l3.165,5.578c-2.07,1.708-4.156,3.168-6.416,4.549c-2.26,1.366-4.61,2.621-7.341,3.642
			c-1.382,0.515-2.839,0.946-4.699,1.184c-0.938,0.104-1.987,0.167-3.326-0.043c-0.673-0.116-1.414-0.307-2.228-0.667
			c-0.815-0.365-1.697-0.925-2.461-1.689c-0.192-0.19-0.376-0.387-0.545-0.599l-0.251-0.32l-0.145-0.198l-0.306-0.431l-0.611-0.863
			c-0.38-0.58-0.782-1.159-1.14-1.744c-0.737-1.168-1.429-2.345-2.061-3.538c-2.555-4.762-4.524-9.633-6.177-14.56
			c-0.82-2.466-1.566-4.942-2.221-7.443c-0.336-1.249-0.64-2.505-0.928-3.77c-0.298-1.286-0.538-2.492-0.798-3.908L215.384,153.605z
			"/>
		<g>
			<path style="fill:#263238;" d="M198.779,147.063c-4.078,7.177,6.865,31.13,6.865,31.13l16.949-6.469
				c0,0-0.656-12.128-5.125-21.489C212.88,140.623,203.255,139.186,198.779,147.063z"/>
		</g>
		<path style="fill:#407BFF;" d="M252.835,177.244l-3.087,0.267c-1.767,0.153-3.497,0.594-5.122,1.306l-4.601,2.016
			c-0.61,0.267-0.917,0.955-0.707,1.588l1.807,5.455c0.191,0.576,0.759,0.948,1.362,0.877c5.006-0.588,7.126-1.625,7.126-1.625
			l3.916-1.585c0.602-0.243,1.005-0.875,1.038-1.623l0.197-4.495C254.816,178.202,253.888,177.153,252.835,177.244z"/>
		<path style="fill:#407BFF;" d="M242.746,181.783c0.926-1.071,2.042-5.534,1.372-6.682c-0.67-1.148-1.683,1.777-2.347,2.559
			c-1.833,2.159-3.359,4.346-2.061,4.977C241.008,183.269,241.134,183.647,242.746,181.783z"/>
		<path style="fill:#263238;" d="M205.891,113.092c0.056,0.686,0.466,1.209,0.915,1.168c0.449-0.041,0.767-0.63,0.71-1.317
			c-0.056-0.686-0.466-1.209-0.915-1.168C206.153,111.817,205.835,112.406,205.891,113.092z"/>
		<path style="fill:#FF5652;" d="M205.062,113.054c0,0,1.887,3.816,3.762,5.57c-1.122,1.244-3.229,0.914-3.229,0.914
			L205.062,113.054z"/>
		<path style="fill:#263238;" d="M203.557,109.567c-0.067-0.003-0.135-0.023-0.195-0.061c-0.189-0.118-0.244-0.368-0.125-0.557
			c1.2-1.901,3.067-1.961,3.146-1.963c0.224-0.005,0.407,0.173,0.409,0.396c0.003,0.223-0.175,0.407-0.398,0.413l0,0
			c-0.061,0.002-1.517,0.064-2.474,1.581C203.839,109.505,203.698,109.574,203.557,109.567z"/>
		<path style="fill:#FF8B7B;" d="M182.444,112.078c1.21,8.38,1.492,13.35,6.106,17.287c6.94,5.922,17.031,1.114,18.352-7.482
			c1.189-7.737-0.99-20.142-9.519-22.743C188.98,96.578,181.233,103.698,182.444,112.078z"/>
		<path style="fill:#263238;" d="M202.578,116.315c2.411-1.517,2.35-4.361,0.989-5.969c-1.36-1.607-3.772-4.39-2.411-5.565
			c1.36-1.175,8.36-3.586,5.787-8.409c-2.572-4.823-8.013-7.79-11.599-4.204s-4.699,1.731-10.511,0.989
			c-5.812-0.742-8.409,5.194-6.43,7.543c1.979,2.35-5.194,3.524-2.844,6.616c-4.39,2.288-0.124,9.46,3.339,12.551
			c3.462,3.091,1.113,8.285,7.048,10.202C191.882,131.987,205.237,123.026,202.578,116.315z"/>
		<path style="fill:#407BFF;" d="M202.068,127.535c-0.189,0-0.374-0.097-0.479-0.271c-0.188-0.316-4.581-7.782-1.525-11.988
			c1.042-1.434,2.134-2.118,3.257-2.029c1.844,0.144,3.169,2.29,4.118,4.143c0.14,0.274,0.031,0.609-0.242,0.749
			c-0.272,0.142-0.609,0.032-0.749-0.241c-0.434-0.848-1.753-3.427-3.213-3.541c-0.712-0.048-1.472,0.475-2.271,1.574
			c-2.625,3.613,1.539,10.692,1.581,10.764c0.157,0.264,0.071,0.605-0.193,0.763C202.263,127.51,202.165,127.535,202.068,127.535z"
			/>
		<path style="fill:#407BFF;" d="M148.412,403.823c-0.069-0.029-0.118-0.094-0.125-0.17c-0.007-0.086,0.04-0.167,0.119-0.201
			c0.399-0.178,3.925-1.719,4.928-1.082c0.194,0.123,0.298,0.315,0.303,0.557h0c0.008,0.404-0.138,0.728-0.434,0.961
			c-0.982,0.774-3.407,0.298-4.765-0.055C148.429,403.829,148.421,403.826,148.412,403.823z M153.046,402.673
			c-0.63-0.26-2.529,0.342-3.918,0.909c1.865,0.421,3.273,0.42,3.824-0.015c0.194-0.153,0.286-0.361,0.28-0.635
			c-0.002-0.106-0.036-0.173-0.115-0.223C153.096,402.696,153.072,402.684,153.046,402.673z"/>
		<path style="fill:#407BFF;" d="M149.799,400.391c0.351-0.245,0.734-0.341,1.139-0.277c0.553,0.085,0.702,0.383,0.723,0.607
			c0.096,0.979-2.043,2.703-3.097,3.107c-0.053,0.01-0.106,0.01-0.149-0.011c-0.021,0-0.043-0.011-0.053-0.021
			c-0.053-0.053-0.085-0.117-0.075-0.191C148.298,403.509,148.661,401.221,149.799,400.391z M151.257,400.764
			c0-0.032-0.01-0.128-0.181-0.191c-0.053-0.021-0.117-0.043-0.202-0.064c-0.054-0.011-0.117-0.011-0.171-0.011
			c-0.234,0-0.458,0.075-0.67,0.224c-0.745,0.543-1.128,1.905-1.266,2.565C149.853,402.722,151.321,401.349,151.257,400.764z"/>
		<polygon style="fill:#FF8B7B;" points="139.822,402.964 148.05,405.106 153.613,386.02 145.385,383.878 		"/>
		<path style="fill:#263238;" d="M148.637,403.46l-9.012-2.349c-0.337-0.088-0.667,0.077-0.794,0.397l-2.819,7.123
			c-0.292,0.738,0.169,1.631,0.949,1.82c3.26,0.791,4.349,0.809,8.435,1.874c4.778,1.245,5.604,3.844,11.394,3.893
			c3.501,0.03,4.147-3.5,2.656-3.85c-4.718-1.108-7.404-5.215-8.926-7.728C150.122,403.981,149.349,403.646,148.637,403.46z"/>
		<polygon style="opacity:0.2;" points="153.61,386.025 150.744,395.863 142.513,393.72 145.379,383.881 		"/>
		<path style="fill:#407BFF;" d="M159.548,301.758c4.921-32.067,2.822-63.286,9.718-81.543l30.191-0.487
			c0,0-13.096,58.474-18.988,84.047c-6.124,26.59-25.559,88.285-25.559,88.285l-13.323-3.494
			C141.588,388.566,151.721,324.895,159.548,301.758z"/>
		<path style="opacity:0.2;" d="M181.352,274.607c0,6.339,0.466,13.205,1.104,20.526c3.899-17.113,9.347-41.315,13.022-57.649
			C184.38,245.758,181.352,258.486,181.352,274.607z"/>
		<path style="fill:#FF8B7B;" d="M198.221,117.174c0.518,1.862,1.855,3.307,3.259,4.06c2.112,1.132,3.709-0.627,3.574-2.889
			c-0.121-2.036-1.366-5.079-3.704-5.279C199.048,112.869,197.629,115.045,198.221,117.174z"/>
		<path style="fill:#407BFF;" d="M206.202,114.829c2.622,0.469,3.03,3.153,3.03,4.328c0,1.175-2.366,10.14-7.165,11.84
			c-4.799,1.7-4.799,0.557-4.088-0.664C198.69,129.112,205.12,123.053,206.202,114.829z"/>
		<path style="fill:#407BFF;" d="M190.862,302.037c-4.116-33.592-9.649-64.246-5.363-82.084l29.429-0.474
			c0,0-1.704,59.816-3.128,85.802c-1.478,27.019-3.55,90.449-3.55,90.449l-14.461,0.22
			C193.788,395.95,188.862,335.935,190.862,302.037z"/>
		<polygon style="fill:#263238;" points="209.147,396.038 191.957,396.308 190.986,390.74 210.15,390.145 		"/>
		<polygon style="fill:#263238;" points="155.984,395.304 139.348,390.967 139.901,385.343 158.527,389.894 		"/>
	</g>
</g>
<g id="Character_2">
	<g>
		<path style="fill:#263238;" d="M347.656,115.078c-10.505,8.492-13.18,22.198-9.396,28.409c5.378,8.829,26.995,11.176,37.252,5.858
			c4.771-2.473,9.078-30.533-4.766-35.898C365.517,105.899,353.604,110.27,347.656,115.078z"/>
		<polygon style="fill:#FFC3BD;" points="385.349,384.098 377.718,389.532 356.325,369.181 365.536,359.201 		"/>
		<path style="fill:#263238;" d="M376.613,387.586l7.726-7.147c0.281-0.26,0.675-0.288,0.948-0.067l6.071,4.915
			c0.63,0.51,0.594,1.577-0.064,2.166c-2.733,2.448-4.165,3.5-7.563,6.643c-2.09,1.934-6.23,6.136-9.116,8.806
			c-2.823,2.611-5.464,0.137-4.482-1.217c4.405-6.072,5.169-9.532,5.69-12.64C375.916,388.485,376.201,387.967,376.613,387.586z"/>
		<path style="fill:#407BFF;" d="M375.051,391.101c-0.684,0.633-1.404,1.117-2.027,1.146c-0.395,0.018-0.721-0.14-0.967-0.471
			c-0.148-0.198-0.179-0.427-0.092-0.661c0.45-1.213,4.381-2.436,4.827-2.571c0.088-0.027,0.18,0.004,0.228,0.077
			c0.048,0.073,0.043,0.173-0.014,0.248C376.522,389.518,375.809,390.401,375.051,391.101z M372.617,390.901
			c-0.126,0.117-0.214,0.229-0.254,0.337c-0.036,0.096-0.023,0.178,0.042,0.265c0.167,0.224,0.374,0.327,0.631,0.315
			c0.736-0.034,1.924-1.02,3.232-2.667C374.94,389.6,373.269,390.298,372.617,390.901z"/>
		<path style="fill:#407BFF;" d="M376.978,388.901c-0.023,0.021-0.05,0.038-0.079,0.048c-1.134,0.411-4.015,0.521-4.55-0.327
			c-0.126-0.201-0.191-0.536,0.221-0.996c0.31-0.34,0.689-0.533,1.141-0.571c1.476-0.124,3.207,1.464,3.279,1.531
			c0.053,0.049,0.074,0.126,0.056,0.201C377.035,388.83,377.011,388.87,376.978,388.901z M372.973,387.803
			c-0.033,0.03-0.064,0.062-0.094,0.096c-0.272,0.303-0.19,0.433-0.164,0.475c0.321,0.509,2.412,0.585,3.677,0.286
			c-0.538-0.431-1.709-1.26-2.677-1.178C373.423,387.507,373.179,387.612,372.973,387.803z"/>
		<polygon style="fill:#FFC3BD;" points="367.955,408.511 358.91,408.823 357.174,377.241 369.731,377.419 		"/>
		<path style="fill:#263238;" d="M358.291,405.939l10.146-0.072c0.369-0.003,0.651,0.252,0.679,0.611l0.612,8.015
			c0.064,0.831-0.706,1.624-1.557,1.615c-3.533-0.036-5.224-0.231-9.686-0.199c-2.745,0.02-6.775,0.333-10.565,0.36
			c-3.708,0.026-3.738-3.718-2.137-4.069c7.181-1.572,8.441-3.678,10.961-5.696C357.198,406.141,357.751,405.943,358.291,405.939z"
			/>
		<g>
			<path style="fill:#407BFF;" d="M342.715,168.992c-0.539,2.132-1.132,4.17-1.743,6.24c-0.601,2.065-1.247,4.119-1.93,6.167
				c-1.369,4.102-2.835,8.17-4.667,12.278c-0.461,1.029-0.941,2.066-1.499,3.121c-0.557,1.055-1.149,2.116-2.017,3.321
				c-0.482,0.63-0.865,1.196-1.994,2.152c-1.091,0.822-2.079,1.054-2.787,1.171c-0.725,0.107-1.271,0.09-1.757,0.056
				c-0.963-0.086-1.683-0.271-2.356-0.464c-0.67-0.196-1.27-0.416-1.847-0.644c-2.279-0.937-4.215-2.044-6.111-3.223
				c-1.882-1.204-3.643-2.47-5.382-3.902c-1.092-0.898-1.248-2.512-0.349-3.603c0.684-0.831,1.782-1.12,2.749-0.814l0.072,0.023
				l5.926,1.894c1.939,0.617,3.894,1.21,5.65,1.569c0.432,0.092,0.851,0.165,1.214,0.201c0.359,0.04,0.687,0.037,0.783-0.004
				c0.042-0.012,0.029-0.043-0.174-0.027c-0.189,0.024-0.661,0.078-1.334,0.573l-0.117,0.095c-0.029,0.025-0.011,0.005-0.019,0.01
				l-0.008-0.004c-0.005-0.003-0.012-0.004-0.012-0.004c-0.004-0.005-0.018,0.028,0.021-0.042c0.059-0.108,0.104-0.14,0.197-0.313
				c0.331-0.542,0.741-1.356,1.108-2.205c0.376-0.846,0.751-1.749,1.105-2.674c1.414-3.719,2.675-7.682,3.896-11.645l1.808-5.979
				l1.749-5.979l0.006-0.021c0.789-2.698,3.616-4.245,6.314-3.455C341.844,163.631,343.378,166.354,342.715,168.992z"/>
			<path style="fill:#263238;" d="M304.342,183.21l-3.363-0.806c-0.971-0.233-1.944,0.378-2.156,1.354l-0.971,4.463
				c-0.175,0.804,0.224,1.624,0.965,1.982l5.197,2.514c0,0,1.956,2.44,4.609,2.742c1.138,0.13,2.198-0.614,2.587-1.691l0.378-1.049
				c0.287-0.796,0.163-1.683-0.331-2.369l-3.497-4.859C306.928,184.348,305.716,183.539,304.342,183.21z"/>
			<path style="fill:#263238;" d="M307.865,190.37c-0.368-1.391,0.549-6.271,1.57-7.155c1.021-0.884,0.954,2.115,1.166,3.275
				c0.518,2.831,1.687,5.039,0.748,6.889C310.686,194.686,308.504,192.79,307.865,190.37z"/>
		</g>
		<path style="fill:#407BFF;" d="M332.126,169.81c-0.445,7.938-0.467,21.029,0.707,42.612l36.401,1.188
			c0.886-13.56,1.758-22.409,9.567-46.533c1.452-4.485-1.417-9.233-6.073-9.971c-2.009-0.319-4.213-0.607-6.446-0.79
			c-6.094-0.498-11.092-0.86-16.529-0.539c-1.505,0.089-3.056,0.221-4.568,0.374C338.066,156.873,332.526,162.665,332.126,169.81z"
			/>
		<path style="fill:#FFFFFF;" d="M349.754,155.779c0,0-5.184,0.841-1.095,11.9c11.253-4.716,17.624-11.361,17.624-11.361
			L349.754,155.779z"/>
		<path style="fill:#FFFFFF;" d="M363.091,177.565c-0.523,2.716-2.906,4.541-5.322,4.076c-2.417-0.465-3.953-3.044-3.43-5.76
			c0.523-2.716,2.906-4.541,5.322-4.076C362.078,172.27,363.614,174.849,363.091,177.565z"/>
		<path style="opacity:0.2;" d="M371.586,171.021c-0.452,5.507-0.822,14.951,0.312,20.868c0.823-3.942,1.925-8.353,3.454-13.637
			L371.586,171.021z"/>
		<path style="fill:#FFC3BD;" d="M366.643,137.452c-1.613,5.342-3.7,15.157-0.36,18.866c0,0-5.553,4.597-16.806,9.313
			c-4.268-8.623,0.277-9.852,0.277-9.852c6.083-1.238,6.402-5.691,5.813-9.901L366.643,137.452z"/>
		<path style="opacity:0.2;" d="M363.576,141.602l-8.004,4.271c0.143,0.997,0.229,2.005,0.195,2.982
			c1.725,0.056,6.095-1.49,7.624-4.347C363.973,143.417,363.709,142.165,363.576,141.602z"/>
		<path style="fill:#FFC3BD;" d="M372.378,126.303c-0.971,8.906-1.192,12.696-5.921,17.067c-7.112,6.574-17.838,3.434-19.547-5.583
			c-1.538-8.116,0.309-21.316,9.22-24.457C364.909,110.236,373.35,117.397,372.378,126.303z"/>
		<path style="fill:#263238;" d="M360.155,114.212c-6.149,3.534,7.064,17.271,10.404,17.085c5.666-3.336,5.757-10.184,2.602-13.453
			C370.006,114.575,367.697,109.878,360.155,114.212z"/>
		<path style="fill:#407BFF;" d="M365.882,139.686c-0.27,0-0.508-0.193-0.557-0.468c-0.054-0.308,0.152-0.601,0.459-0.654
			c3.97-0.697,6.474-1.986,7.052-3.631c0.447-1.273-0.327-2.526-1.055-3.355c-0.377-0.428-0.84-0.653-1.414-0.688
			c-2.375-0.162-5.75,2.863-7.024,3.996l-0.261,0.23c-0.233,0.208-0.591,0.184-0.798-0.052c-0.206-0.235-0.182-0.593,0.053-0.798
			l0.255-0.227c1.499-1.333,5.022-4.469,7.844-4.279c0.878,0.054,1.616,0.414,2.194,1.071c1.311,1.489,1.763,3.079,1.273,4.476
			c-0.74,2.106-3.405,3.576-7.923,4.369C365.947,139.683,365.914,139.686,365.882,139.686z"/>
		<path style="fill:#263238;" d="M366.786,113.527c4.368,2.031-15.666,2.099-19.798,7.378
			C350.435,115.664,355.547,108.3,366.786,113.527z"/>
		<g>
			<path style="fill:#407BFF;" d="M332.834,212.422c0,0-18.774,79.862-17.099,100.327c1.959,23.93,40.532,58.278,40.532,58.278
				l10.972-11.961c0,0-23.29-26.325-32.118-46.905c2.832-20.576,28.637-79.208,27.548-98.765L332.834,212.422z"/>
			<path style="opacity:0.4;fill:#FFFFFF;" d="M332.834,212.422c0,0-18.774,79.862-17.099,100.327
				c1.959,23.93,40.532,58.278,40.532,58.278l10.972-11.961c0,0-23.29-26.325-32.118-46.905
				c2.832-20.576,28.637-79.208,27.548-98.765L332.834,212.422z"/>
		</g>
		<polygon style="fill:#407BFF;" points="369.593,360.482 356.422,372.33 352.537,369.905 366.929,356.234 		"/>
		<path style="opacity:0.3;fill:#407BFF;" d="M347.368,246.87c-10.543,14.609-11.06,41.476-10.402,56.567
			c3.62-13.868,11.37-34.179,17.41-52.831C354.236,243.438,352.303,240.03,347.368,246.87z"/>
		<g>
			<path style="fill:#407BFF;" d="M339.633,212.11c0,0,7.382,69.184,9.725,92.816c2.781,28.057,6.866,73.054,6.866,73.054
				l13.508-0.561c0,0,2.961-38.148,0.76-63.287c0.403-33.367,6.23-79.917-1.257-100.522L339.633,212.11z"/>
		</g>
		<path style="opacity:0.4;fill:#FFFFFF;" d="M339.633,212.11c0,0,7.382,69.184,9.725,92.816
			c2.781,28.057,6.866,73.054,6.866,73.054l13.508-0.561c0,0,2.961-38.148,0.76-63.287c0.403-33.367,6.23-79.917-1.257-100.522
			L339.633,212.11z"/>
		<polygon style="fill:#407BFF;" points="370.752,379.887 355.262,379.451 354.178,374.577 371.703,374.09 		"/>
		<path style="fill:#263238;" d="M357.81,128.355c-0.034,0.727-0.448,1.299-0.923,1.276c-0.475-0.023-0.833-0.63-0.798-1.358
			c0.034-0.727,0.448-1.299,0.923-1.276C357.487,127.02,357.844,127.628,357.81,128.355z"/>
		<path style="fill:#263238;" d="M349.589,127.966c-0.035,0.727-0.448,1.299-0.923,1.276c-0.475-0.023-0.833-0.63-0.798-1.358
			c0.034-0.727,0.448-1.299,0.923-1.276S349.624,127.239,349.589,127.966z"/>
		<path style="fill:#263238;" d="M348.999,126.658l-1.723-0.586C347.276,126.072,348.108,127.479,348.999,126.658z"/>
		<path style="fill:#ED847E;" d="M352.062,129.191c0,0-1.382,3.073-2.812,4.519c0.918,0.942,2.57,0.609,2.57,0.609L352.062,129.191z
			"/>
		<path style="fill:#263238;" d="M356.011,137.187c-0.38,0.049-0.788,0.068-1.225,0.047c-0.118-0.006-0.209-0.106-0.203-0.224
			c0.006-0.117,0.103-0.208,0.224-0.203c3.189,0.153,4.788-2.007,4.804-2.029c0.069-0.096,0.203-0.118,0.298-0.049
			c0.096,0.069,0.118,0.203,0.049,0.298C359.897,135.112,358.611,136.853,356.011,137.187z"/>
		<path style="fill:#FFC3BD;" d="M373.969,134.439c-0.983,1.576-2.602,2.55-4.094,2.871c-2.245,0.482-3.228-1.559-2.487-3.605
			c0.666-1.841,2.637-4.31,4.834-3.874C374.386,130.26,375.093,132.637,373.969,134.439z"/>
		<path style="fill:#263238;" d="M360.157,125.805c-0.101-0.051-0.181-0.142-0.217-0.259c-0.545-1.828-2.047-2.292-2.064-2.298
			c-0.223-0.068-0.355-0.305-0.288-0.532c0.067-0.226,0.305-0.355,0.532-0.288c0.079,0.024,1.965,0.605,2.641,2.874
			c0.067,0.226-0.062,0.464-0.288,0.532C360.363,125.866,360.251,125.853,360.157,125.805z"/>
		<path style="fill:#263238;" d="M346.761,124.198c-0.105,0.013-0.216-0.012-0.308-0.08c-0.19-0.14-0.231-0.408-0.091-0.598
			c1.402-1.904,3.374-1.815,3.458-1.81c0.236,0.014,0.416,0.215,0.402,0.451c-0.013,0.235-0.215,0.415-0.45,0.403
			c-0.077-0.005-1.607-0.052-2.722,1.463C346.979,124.126,346.873,124.184,346.761,124.198z"/>
		<path style="fill:#407BFF;" d="M353.316,406.983c-0.214-0.264-0.278-0.613-0.189-1.038c0.075-0.361,0.295-0.528,0.466-0.604
			c1.083-0.482,3.706,1.267,4.001,1.469c0.067,0.045,0.099,0.131,0.078,0.215c-0.021,0.084-0.088,0.152-0.173,0.172
			c-1.188,0.285-3.3,0.649-4.096-0.118C353.372,407.048,353.343,407.017,353.316,406.983z M356.915,406.896
			c-1.072-0.668-2.602-1.42-3.172-1.166c-0.072,0.032-0.159,0.092-0.197,0.272c-0.07,0.335-0.013,0.584,0.167,0.759
			C354.143,407.175,355.322,407.22,356.915,406.896z"/>
		<path style="fill:#407BFF;" d="M356.283,406.178c-0.632-0.779-1.175-1.793-1.003-2.439c0.052-0.195,0.221-0.533,0.76-0.602
			c0.343-0.044,0.641,0.05,0.886,0.279c0.918,0.859,0.759,3.461,0.751,3.572c-0.005,0.076-0.05,0.146-0.119,0.185
			c-0.068,0.039-0.15,0.039-0.213,0.003C357.043,407,356.648,406.628,356.283,406.178z M356.711,403.836
			c-0.029-0.035-0.059-0.068-0.09-0.097c-0.157-0.147-0.34-0.205-0.558-0.177c-0.276,0.035-0.342,0.157-0.369,0.258
			c-0.166,0.621,0.759,2.077,1.571,2.756C357.274,405.76,357.183,404.417,356.711,403.836z"/>
		<g>
			<path style="fill:#FFFFFF;" d="M370.009,211.469l0.581,3.324c0.1,0.26-0.227,0.51-0.648,0.497l-37.464-1.223
				c-0.328-0.011-0.583-0.182-0.581-0.391l0.021-3.304c0.002-0.229,0.307-0.413,0.666-0.401l36.862,1.203
				C369.717,211.182,369.945,211.302,370.009,211.469z"/>
		</g>
		<g>
			<path style="fill:#407BFF;" d="M364.616,215.474l0.987,0.032c0.197,0.007,0.357-0.091,0.357-0.217l-0.009-4.294
				c0-0.126-0.161-0.234-0.358-0.24l-0.987-0.032c-0.197-0.006-0.357,0.091-0.357,0.217l0.009,4.294
				C364.259,215.359,364.42,215.467,364.616,215.474z"/>
			<path style="opacity:0.4;fill:#FFFFFF;" d="M364.616,215.474l0.987,0.032c0.197,0.007,0.357-0.091,0.357-0.217l-0.009-4.294
				c0-0.126-0.161-0.234-0.358-0.24l-0.987-0.032c-0.197-0.006-0.357,0.091-0.357,0.217l0.009,4.294
				C364.259,215.359,364.42,215.467,364.616,215.474z"/>
		</g>
		<g>
			<path style="fill:#407BFF;" d="M335.215,214.514l0.987,0.032c0.197,0.006,0.357-0.091,0.357-0.217l-0.009-4.294
				c0-0.126-0.161-0.234-0.358-0.24l-0.987-0.032c-0.197-0.006-0.357,0.091-0.357,0.217l0.009,4.294
				C334.857,214.399,335.018,214.508,335.215,214.514z"/>
			<path style="opacity:0.4;fill:#FFFFFF;" d="M335.215,214.514l0.987,0.032c0.197,0.006,0.357-0.091,0.357-0.217l-0.009-4.294
				c0-0.126-0.161-0.234-0.358-0.24l-0.987-0.032c-0.197-0.006-0.357,0.091-0.357,0.217l0.009,4.294
				C334.857,214.399,335.018,214.508,335.215,214.514z"/>
		</g>
		<g>
			<path style="fill:#407BFF;" d="M349.916,214.994l0.987,0.032c0.197,0.006,0.357-0.091,0.357-0.217l-0.009-4.294
				c0-0.126-0.161-0.234-0.358-0.24l-0.987-0.032c-0.197-0.006-0.357,0.091-0.357,0.217l0.009,4.294
				C349.558,214.879,349.719,214.987,349.916,214.994z"/>
			<path style="opacity:0.4;fill:#FFFFFF;" d="M349.916,214.994l0.987,0.032c0.197,0.006,0.357-0.091,0.357-0.217l-0.009-4.294
				c0-0.126-0.161-0.234-0.358-0.24l-0.987-0.032c-0.197-0.006-0.357,0.091-0.357,0.217l0.009,4.294
				C349.558,214.879,349.719,214.987,349.916,214.994z"/>
		</g>
		<g>
			<path style="fill:#407BFF;" d="M378.885,162.633c1.363,5.825,2.457,11.569,3.305,17.47c0.423,2.942,0.819,5.906,1.064,8.924
				c0.229,3.03,0.422,6.075,0.232,9.38c-0.058,0.838-0.136,1.694-0.271,2.599c-0.067,0.453-0.174,0.948-0.266,1.417l-0.211,0.785
				c-0.087,0.282-0.101,0.43-0.337,1.013c-0.39,0.963-1.034,1.856-1.738,2.502c-0.702,0.641-1.417,1.058-2.078,1.367
				c-1.317,0.592-2.428,0.772-3.426,0.886c-1.997,0.2-3.673,0.061-5.302-0.126c-1.62-0.204-3.157-0.513-4.662-0.855
				c-6.003-1.423-11.526-3.471-17-5.95c-1.273-0.577-1.838-2.077-1.261-3.35c0.499-1.103,1.691-1.674,2.829-1.433l0.078,0.017
				c5.555,1.176,11.25,2.308,16.697,2.919c1.358,0.151,2.703,0.245,3.98,0.27c1.264,0.034,2.513-0.025,3.399-0.222
				c0.438-0.086,0.758-0.243,0.758-0.275c-0.01-0.012-0.104,0.016-0.273,0.16c-0.181,0.141-0.405,0.423-0.528,0.711
				c-0.088,0.249-0.033,0.038-0.025-0.03l0.056-0.271l0.085-0.733c0.045-0.538,0.065-1.132,0.072-1.746
				c-0.014-2.508-0.253-5.274-0.603-8.024c-0.363-2.763-0.754-5.561-1.243-8.359c-0.976-5.581-2.092-11.254-3.249-16.778
				l-0.014-0.065c-0.576-2.751,1.187-5.448,3.938-6.023C375.596,158.245,378.255,159.953,378.885,162.633z"/>
			<path style="fill:#263238;" d="M342.491,190.133l-3.05-0.519c-0.985-0.167-1.914,0.507-2.061,1.495l-0.67,4.519
				c-0.121,0.814,0.332,1.605,1.095,1.914l5.353,2.161c0,0,4.403,3.438,7.893,1.809l-0.016-3.73l-4.389-5.259
				C345.589,191.257,344.116,190.41,342.491,190.133z"/>
		</g>
		<path style="fill:#263238;" d="M357.219,127.048l-1.723-0.586C355.496,126.462,356.328,127.868,357.219,127.048z"/>
		<path style="fill:#407BFF;" d="M364.448,134.809l1.676,3.512c0.112,0.234,0.157,0.491,0.129,0.751
			c-0.203,1.899,3.058,9.253-14.85,8.424c-5.267-0.244-5.897-10.284-5.358-13.447c0.094-0.554,0.505-0.987,1.037-1.102l3.861-0.832
			c0.156-0.034,0.317-0.038,0.474-0.012l12.059,1.967C363.898,134.138,364.259,134.413,364.448,134.809z"/>
	</g>
</g>
</svg>
